<svg id="Layer_1" data-name="Layer 1" xmlns="http://www.w3.org/2000/svg" xmlns:xlink="http://www.w3.org/1999/xlink" viewBox="0 0 397.79 80.96"><defs><style>.cls-1{fill:url(#radial-gradient);}.cls-2{fill:url(#radial-gradient-2);}.cls-3{fill:url(#radial-gradient-3);}.cls-4{fill:url(#radial-gradient-4);}.cls-5{fill:url(#radial-gradient-5);}.cls-6{fill:url(#radial-gradient-6);}.cls-7{fill:url(#radial-gradient-7);}.cls-8{fill:url(#radial-gradient-8);}.cls-9{fill:url(#radial-gradient-9);}.cls-10{fill:url(#radial-gradient-10);}.cls-11{fill:url(#radial-gradient-11);}.cls-12{fill:#f26522;}</style><radialGradient id="radial-gradient" cx="5.78" cy="1.68" r="59.73" gradientTransform="matrix(0.79, -0.06, 0.06, 0.81, 45.94, 20.61)" gradientUnits="userSpaceOnUse"><stop offset="0" stop-color="#f26522" stop-opacity="0.5"/><stop offset="1" stop-color="#f26522"/></radialGradient><radialGradient id="radial-gradient-2" cx="5.87" cy="1.69" r="59.65" xlink:href="#radial-gradient"/><radialGradient id="radial-gradient-3" cx="5.87" cy="1.69" r="59.66" xlink:href="#radial-gradient"/><radialGradient id="radial-gradient-4" cx="5.87" cy="1.68" r="59.65" xlink:href="#radial-gradient"/><radialGradient id="radial-gradient-5" cx="5.87" cy="1.68" r="59.65" xlink:href="#radial-gradient"/><radialGradient id="radial-gradient-6" cx="6.76" cy="2.58" r="59.65" xlink:href="#radial-gradient"/><radialGradient id="radial-gradient-7" cx="5.87" cy="1.69" r="59.66" xlink:href="#radial-gradient"/><radialGradient id="radial-gradient-8" cx="5.87" cy="1.7" r="59.65" xlink:href="#radial-gradient"/><radialGradient id="radial-gradient-9" cx="15.85" cy="9.12" r="55.12" gradientTransform="matrix(0.83, -0.06, 0.06, 0.88, 37.02, 15.67)" xlink:href="#radial-gradient"/><radialGradient id="radial-gradient-10" cx="15.95" cy="9.03" r="56.56" gradientTransform="matrix(0.83, -0.06, 0.06, 0.88, 37.02, 15.67)" xlink:href="#radial-gradient"/><radialGradient id="radial-gradient-11" cx="6.58" cy="3.12" r="59.65" xlink:href="#radial-gradient"/></defs><title>Artboard 2</title><path class="cls-1" d="M96.85,40.9s-.43.18-.4.51a2.87,2.87,0,0,1,0,.45,5,5,0,0,1-.15.92,1.26,1.26,0,0,0,.22,1,2.48,2.48,0,0,1,.5.75,5.32,5.32,0,0,1,.21.89.6.6,0,0,0,.37.27q-.19-2.14-.56-4.22H97Z"/><path class="cls-2" d="M68,61.9c-.58-.6-.48-.27-.48-.27a7.19,7.19,0,0,0-.07.91c0,.26-.11.27-.34.63s-.39.51-.57.86-.82.32-1,.59-.73.53-.92.85-.1.4-.06,1,.17.63.45,1.12-.19.31-.45.89-.35.45-.53,1,.16.54.34.7,0,.47,0,.85,0,.3.55.76.88-.07,1.17-.1.64-.43.64-.43q.69-2.58,1.36-5.15l0-.13c-.12-.51-.18-.8.24-.84s.1-.35.1-.35-.18-.11-.25-.58.43.14.55,0,0-.6-.08-1.28S68.57,62.5,68,61.9Z"/><path class="cls-3" d="M29.54,18.41c.36.08.36-.07.71-.25a2.69,2.69,0,0,1,.83-.33c.51-.14.15-.85.27-1s.24.12-.06-.11-.48-.25.23-.33,0-.31-.16-.4-.27,0-.74.05-.29.54-.29.54a.5.5,0,0,1-.51,0c-.33-.16-.41,0-.47.47s.1.27.36.24,0,.2-.26.28a.62.62,0,0,0-.37.57C29.09,18.34,29.18,18.33,29.54,18.41Z"/><path class="cls-4" d="M40.31,3.2c.35,0,.52-.32.84-.35s0,.27,0,.27c-.9.23-.94.18-.31.47s.53,0,.95.07.21,0,.54-.47.19-.34.69-.43.4.27.61.32a3.58,3.58,0,0,0,.95.07c.47,0,.58-.19.38-.18a1.34,1.34,0,0,1-1-.22,4,4,0,0,0-1.46-.32,2.1,2.1,0,0,1,.47,0,7,7,0,0,0,1.21,0,3.24,3.24,0,0,0,1-.25c.55-.19.28-.36.28-.36l-1.35.11-1.38.11c-.56,0-.73.18-1.55.25l-1.35.12c-.41,0-.43.26-.42.55S40,3.23,40.31,3.2Z"/><path class="cls-5" d="M24.92,10.74c.4,0-.06.17-.14.18a5.59,5.59,0,0,0-.66.37l.69.08-.37.34s.58-.1.69,0a1.42,1.42,0,0,0,.78.15c.26,0,.55-.06.58-.17a3,3,0,0,1,1.19-.48,2.17,2.17,0,0,0,1-.66c-.06-.39-.82-.57-1.19-.4s-.35.07-.66.1a1.31,1.31,0,0,0-.66.18,1.66,1.66,0,0,1-.69.22c-.23,0-.08-.18-.28-.31s-1.2.41-1.09.55S24.52,10.79,24.92,10.74Z"/><path class="cls-6" d="M9.7,78.91a.45.45,0,0,1,.13.5c-.09.35.11.06.25-.5s.07-.74.4-1.07.37-.42.11-.86-.68-.86-.43-1.19.64-1,.83-1.18.81-.92,1.15-.87a2.7,2.7,0,0,0,1.13,0c0-.09-.26-.45.08-.46s.35-.22.35-.22c0-.33,0-.5.05-.83a2.34,2.34,0,0,0,.22-.77c0-.25,0-.49-.05-.83s.19-.28.17-.74-.16-2.31-.22-3,.24-.29.33-.14,0-.09.13-.56a6.35,6.35,0,0,0,.17-.82,2.75,2.75,0,0,1,.56-.68,1.74,1.74,0,0,0,.5-1.47,4.92,4.92,0,0,0-.32-1.55c-.17-.43.21-.8-.2-.77s-.3.3-.84-.08a7,7,0,0,1-.91-.79c-.14-.12-.61-.65-.85-.66a3.62,3.62,0,0,0-.6,0c-.26,0-.49.16-.68,0s-.56-.52-1,.1l-.16.23a6.83,6.83,0,0,0,0-.68c0-.31-.05-.31-.5-.52a10.56,10.56,0,0,0-1-.46.49.49,0,0,0-.56.25l-.14.23a.68.68,0,0,0,.1-.5c-.1-.33-.3-.29-.47-.27a5.73,5.73,0,0,1-.58,0s-.27-.29,0-.46.33-.24.29-.54.07-.06-.3-.35-.23-.38-.32-.71-.31-.86-.31-.86L6,54.7,6,54.64s-.89-.72-1.11-.7H4.79A3.82,3.82,0,0,0,4,53.8l-.58.05,0-.05c-.12-.14-.46-.53-.61-.49s-.4-1.08-.75-1H2a1.25,1.25,0,0,1-.68-.15s.4-.37.25-.54-.17,0-.48-.19S.24,51.06.63,51s.3-.12.3-.12L0,50.83q0,1.78.13,3.59a50.67,50.67,0,0,0,9.36,26c0-.23,0-.44,0-.59A3.49,3.49,0,0,1,9.7,78.91Z"/><path class="cls-7" d="M58,5a2.46,2.46,0,0,0,.75.29c.09,0,1-.21,1-.21-.43-.05-1.82-.21-1.13-1s3.53-1.57,3.53-1.57c-.32-.23-.37-.16-.55-.15s-.49.17-.69.19-.16.13-.34.14l-1.29.09c-.32,0-.23.29-.41.3s-.52.18-.75.19,0,.3-.35.35-.1.18-.19.19-.11.16-.14.41,0,.3-.2.42-.46.16-.44.36S57.68,4.81,58,5Z"/><path class="cls-8" d="M85.78,44.3c0,.1-.24,2.94.6,2.69a.88.88,0,0,0,.5-1.49C86.46,45,85.83,43.79,85.78,44.3Z"/><path class="cls-9" d="M67.74,44.82s-.35.28-.55.47-.53.16-1.12.2-.45.16-.91.19-.27.32-.69.39-.71.13-1,.15-.28-.33-.45-.32-.23-.13-.26-.25a.41.41,0,0,1,0-.08l0-.6a.8.8,0,0,0-.43-.58c-.23-.16-.24-.33-.56-.66a2.52,2.52,0,0,0-1.2-.78c-.43-.06-.06-.25-.67-1s-.23-.29-.4-.84a.6.6,0,0,0-.21-.36,2.15,2.15,0,0,1-.57-.36c-.46-.44-.36-.28-.46-.44a2.75,2.75,0,0,1-.1-.81c0-.13-.55-1.08-.75-1.53s-.48-.18-.36-.32,0-.15-.1-.31a2.37,2.37,0,0,1-.27-.64,3.61,3.61,0,0,0-.93-1.6c-.41-.44-.28-.36-.31-.7s-.74-.84-.75-1-.25-.57-.16-.46.38.61.53.81.05.16.63.59.16-.14.17-.61a2.82,2.82,0,0,0-.1-.6,3.08,3.08,0,0,0-.46-1.17c-.13,0-.22,0-.55,0s-.26-.07-.59,0-.27-.23-.82-.2-.56.42-1,.62-1.17-.42-1.38-.45a7.85,7.85,0,0,0-1,.07c-.12,0-.22-.09-.37-.14a.48.48,0,0,0-.19,0,2.69,2.69,0,0,1-.82-.23,2.17,2.17,0,0,1-.49-.38c-.27-.27-.63,0-.88,0s-.35.4-.55.59,0,.67.06,1-.16.1-.36.28-.71.1-1-.09-.1-.16-.32-.36-.8,0-1,0-.25,0-.32-.39a.53.53,0,0,0-.36-.47s-.67,0-1,0-.55,0-.75,0-.21-.11-.32-.21a.39.39,0,0,0-.29-.16.36.36,0,0,1-.35-.22.62.62,0,0,1-.15-.45c0-.25.23-.4.34-.61s-.11-.53-.2-.65.26-.56.26-.56-.36.28-.37.07-.51-.24-.51-.24l-.53.17s-.41.08-.54.09l-.53.09-.7.06s-.37.12-1.14.31a3.38,3.38,0,0,1-.94.17,2.49,2.49,0,0,0-.41.12,2.38,2.38,0,0,0-.65.27c-.16.14-.19.27-.35.28a1.44,1.44,0,0,0-.64.27c-.32.19,0,0-.12.18s-.13.19-.22.2H33.2a1.34,1.34,0,0,1-.33-.09,1.35,1.35,0,0,0-.41,0l-.53.05a.93.93,0,0,1-.41-.13.66.66,0,0,0-.46-.28c-.28,0-.24.19-.24.19s0,.21-.06.38a2.68,2.68,0,0,0-.18.6c0,.21-.31.24-.39.41s-.28.19-.51.34-.44.13-.59.43a3.77,3.77,0,0,0-.37.74c0,.21-.19.31-.18.56a2.29,2.29,0,0,0,.11.53c0,.14,0,.2,0,.34a1,1,0,0,0-.29.61c0,.29-.59.31-.59.31a2.68,2.68,0,0,0-.54.47,1.31,1.31,0,0,1-.55.35h0c-.11.06.1.54-.51,1a1.82,1.82,0,0,0-.66,1.28,2.33,2.33,0,0,1-.26.49,2,2,0,0,0-.21.65,6.13,6.13,0,0,0-.52.89c-.14.35-.11.18-.14.48s.1.29.19.49,0,.16.25.23,0,.55.05.93.05.21.07.59-.05.51,0,1c0,.15,0,.25,0,.32a.41.41,0,0,1-.06.28c-.07.13-.32.75-.32.75a1.86,1.86,0,0,0-.05.47l0,.51c0,.25,0,0-.06.39s0,0,0,.3.31.48.31.48l0,0,.16.21c.17.24.53.08.53.08-.08.26.16.4.28.46l.07,0a1.66,1.66,0,0,0,.35.44c.17.11.13.2.39.4a1.3,1.3,0,0,1,.34.49,1.21,1.21,0,0,1,.07.16s0,.38,0,.51.31.32.44.44a2,2,0,0,0,.51.3.8.8,0,0,1,.17.11c.14.12.18.25.31.37s1,.74,1,.74a7.42,7.42,0,0,1,.82.54c.35.28.46.09.46.09l.1,0,.34-.09a2.18,2.18,0,0,1,.52-.3c.12,0,.27-.24.73-.27l.95-.07c.37,0,.18.12.43.23a.55.55,0,0,0,.39,0l.11,0,.4-.2a2,2,0,0,0,.44-.2,1.23,1.23,0,0,1,.57-.3c.21,0,.23-.23.49-.25a.25.25,0,0,0,.23-.28l.14,0,.6-.15h0a7.81,7.81,0,0,1,.84-.06c.34,0,.31.15.79.46s.11.34.09.73.15.34.44.31.57-.22.83-.24a3.37,3.37,0,0,0,.82-.32h0l.31.4a2.62,2.62,0,0,1,.55.65.7.7,0,0,1,.08.77,1.21,1.21,0,0,0-.09.23,5.75,5.75,0,0,0-.13.69,2,2,0,0,0,0,.32c0,.26-.26.5-.29,1.15s.77,1.47,1.48,2.1l.39.33a1.57,1.57,0,0,1,.41.48,2.84,2.84,0,0,1,.26.69A6.92,6.92,0,0,0,44.19,61c.3.67.73.73.48.75s0,1,.26,1.2.43,1.18,0,2a10.78,10.78,0,0,0-.79,3.25c0,.16,0,.3,0,.42,0,.86,1.88,3.56,1.88,3.56a17.44,17.44,0,0,1,.62,2.51c0,.63.75,1.34,1,1.7a.88.88,0,0,1,.12.17,3.67,3.67,0,0,0,.8,1.63c.64.71-.06,1.35.59,2.22s1,.51,1.69.06,1.08-.07,1.42-.09,1.05-.49,1.56-.53.28-.77,1.26-1.18,1.13-.67,1.24-1.52S57,76,57.56,75.56s.48-.58.21-1.11l-.13-.25c-.39-.73,1.26-1.28,1.26-1.28.3,0,.48-.42.51-1.28a2.09,2.09,0,0,0-.64-1.87c-.54-.48.13-.65.41-.85a3.84,3.84,0,0,0,.76-.7c.23-.27.3-.58.45-.76s.86-.45,1.06-.64a4,4,0,0,0,.87-.93c.27-.45.31-.5.15-1s0-.47-.09-1.42a3.69,3.69,0,0,1,0-1.12l-.22-.48a9.84,9.84,0,0,1-.44-1.12c-.17-.6-.06-.87-.25-1.11a2.1,2.1,0,0,1-.37-1.1c-.09-.59.34-.26.33-.69,0,0,0,0,0,0,0-.47,0-.65.24-.84s-.14-.77.19-.88.55-.58.64-.74l0-.05a6.66,6.66,0,0,0,.51-.6c.08-.14.57-.87.68-1.14s.71-.75.82-.88.54-.21.61-.39a5.31,5.31,0,0,1,.8-1.14A3.42,3.42,0,0,0,66.66,50a11.1,11.1,0,0,1,.63-1.77c.44-.94.38-2.79.64-3.2S67.74,44.82,67.74,44.82Zm-10.1,9.41v0h0v0c0,.16,0,.24,0,.4h0Zm-.44-.1h0a.39.39,0,0,0,0,.05A.23.23,0,0,1,57.2,54.14Zm-.93.69h0l0-.14Zm-.2.33h0l.2.3h0Zm1.4,1-.18.13h-.44l-.31-.07-.19.32a4.83,4.83,0,0,1-.18-.6h0a5.47,5.47,0,0,0,.18.58l.19-.32.31.07h.44l.18-.13Zm.09-.81c0,.08,0,.12,0,.2h-.13c0,.1,0,.16,0,.26l-.18.08c0,.07,0,.11,0,.18h0c0-.08,0-.12,0-.21l.18-.08c0-.11,0-.16,0-.27h.13c0-.08,0-.12,0-.2h.22l0,0Z"/><path class="cls-10" d="M67.49,5.08c0,.1,1.24.46,1.24.46l-.9,0c-.51,0-.62.06-.65-.18a.84.84,0,0,0-.48-.63c-.25-.09-.07.34-.07.34s-.58.37,0,.51.7.24.65.48-.05.52.42.5,1.75-.17,1.88.27.68.32.68.32l-.53.12s-.52-.64-.91-.62a7,7,0,0,0-.85.1s.41.16.45.43-.16.6-.28.6S68,8,68,8L67.6,8a1.85,1.85,0,0,1-1.3-.26s1.31,0,1.33-.4-.1-.45-.31-.54-.44,0-.51-.29.08-.31-.23-.54a2.47,2.47,0,0,0-.68-.42c-.25-.09-.15-.57-.15-.57a2.91,2.91,0,0,0-1.16-.42c-.43,0-.74.07-.58.4s.19.6,0,.61-.44.29-.16.35.34.19.34.19-.13.18.27.26.47,0,.58.18.47.26.47.26.19.27,0,.27-.22.12-.57-.15-.44,0-1-.3a1.93,1.93,0,0,0-1.1-.22c-.28,0-1.46.14-1.46.14s-.78-.54-.95-.26.8.37.8.37.65.14.41.43-.33-.05-.33-.05a.63.63,0,0,0-.42-.15c-.24,0-.48.33-.48.33l-.89-.05-.22.22-.67.07a.58.58,0,0,0,.24-.36c0-.21-.45-.08-.57,0s-.42.2-.42.2a2.53,2.53,0,0,0-.62.17,3.46,3.46,0,0,0-.59.48l-.13.32a2.66,2.66,0,0,1-1,0c-.21-.13-.47-.35.09-.39s-.12-.41-.6-.38-.6,0-.48.44.61.55.63.76-.19.08-.19.08a.75.75,0,0,0-.5-.17,2.37,2.37,0,0,0-1.13.56c-.1.18.48.43.29.51a2,2,0,0,1-1.22-.13c-.34-.19-.88.17-.22.37s.45.54.15.34a1.5,1.5,0,0,0-.71-.31c-.16,0-.49,0-.49,0s.11-.15-.15-.38a.34.34,0,0,1-.11-.45,2.34,2.34,0,0,1-.78-.22c-.34-.19.11-.11.27-.13A12.22,12.22,0,0,0,52,9c.69,0,1.64-.22,1.61-.53a.79.79,0,0,0-.85-.6,1.6,1.6,0,0,1-1.11-.24,2.45,2.45,0,0,0-1.51-.24,1.26,1.26,0,0,1-.85-.11c-.17-.09-.91.17-.91.17s-.34-.29-.18-.3h.16A1,1,0,0,1,48,7a2.3,2.3,0,0,0-.61-.12l-.07.18-.06-.37-.39.23-.34.34c0-.14,0-.2,0-.34l-.42.34.13-.45a1,1,0,0,0-.56.08c-.35.13-.5.31-.5.42s-.24,0-.36,0a4.53,4.53,0,0,0-.47.11s0,.07-.36.1-.52-.13-.52,0-.39.27-.5.31-.18.43-.18.43a2.32,2.32,0,0,1-.72.1c-.12-.06-.27.13-.3.37s-.27.3-.39.34a3,3,0,0,0-.46.39l-.14.4s-.1.39-.26.44-.46.46-.66.48-.3.46-.46.47l-.36,0-.72.07s-.07.47-.18.55a3.77,3.77,0,0,1-.47.22c-.27.13-.48.15-.47.26a.82.82,0,0,0,.17.31l.76,0-1,.16.1.6.63-.31-.5.66.34.47s0,.29.73.11a2.46,2.46,0,0,0,1-.53c.16-.05.41-.69.47-.4s.05.28.33.26h.12c.4,0-.51.26-.06.4s.33.15.56.64a1,1,0,0,1,.12.72.39.39,0,0,0,.42.33c.24,0,.36-.1.4-.26s.36-.18.64-.2.57-.12.5-.59a2.91,2.91,0,0,1,0-.91s1.08-.42.93-.8-.82-.19-1-.92.64-.88,1.11-1.2a9.08,9.08,0,0,0,.77-.59s-.45-.07-.21-.23.26-.34.47-.35.59-.15.72-.16h.19c.28,0,.74,0,.62.15s-.06.32-.18.33a8.7,8.7,0,0,0-1,.75s-.63.26-.49.68.29.91.29.91,0,.14.25.16.42.22.62.2l.73-.06c.12,0,.52-.11.65-.12a1.53,1.53,0,0,0,.41,0,1.19,1.19,0,0,0,.31-.28h.16l.29,0,.45.08-.47.29-.23.16-1.5.15s-1.07.52-.4.79a1.52,1.52,0,0,1,.3.16c.36.26.3.56,0,.61s-.42-.15-.42-.15a.83.83,0,0,0-.92-.29c-.52.22-.48.26-.17.6s0,.25.15.39-.15.31.07.44,0,.13-.2.21-.39.18-.19.23c.38.08-.85.22-.85.22L44,15.89s-.6.2-.93.34-1,.38-1,.38l-.15,0-.3,0s-.42-.26-.54-.14a1.25,1.25,0,0,1-.6.24A.87.87,0,0,1,40,16.5c-.13-.1-.45.08-.38-.3s.11-.31.42-.52.4-.22.27-.36-.49.08-.37-.19.34-.54.14-.53a.87.87,0,0,0-.56.23,3.16,3.16,0,0,1-.31.29s-.48.08-.48.23a2.31,2.31,0,0,0,0,.51,3,3,0,0,0,.47.55s-.1.49-.26.51.06,0-.68.32l-.12,0c-.88.34-.94,0-1.2.53s0,.59-.62.77l-.07,0c-.51.16-.32.26-.44.38a2,2,0,0,1-.44.22s0-.1-.09-.15c-.37-.17-.6.21-.37-.17s.35-.27.46-.57.23-.35,0-.41-.53.32-.75.16.09-.1,0-.45,0-.42-.26-.61-.45,0-.45,0,.25-.58-.29-.69a1.06,1.06,0,0,0-.78.05s0-.06.53-.33a.88.88,0,0,0,.52-.66,5.46,5.46,0,0,0-.81-.05c-.24,0-.44.3-.47.22a.48.48,0,0,1,.26-.44,3.72,3.72,0,0,0,.41-.32l-1,0a3,3,0,0,1-.46.6c-.26.25-.32.39-.32.58s.48.2.48.2-.38.35-.23.33.71-.13.54-.06a3.94,3.94,0,0,0-.44.24l.36,0s-.5.41-.38.4.68-.19.68-.19.27-.17.27.14a.89.89,0,0,0,.22.53s.45,0-.08.34-.5.31-.65.32.37.34.2.45-.63,0-.65.16.22.27.4.25.58.29.87-.21c0,0-.16.49-.55.5a.78.78,0,0,0-.82.76,1.88,1.88,0,0,1,.77-.23c.51-.05.45-.13.75-.16s.33-.06.66-.1a8.34,8.34,0,0,0,.9-.15,3.18,3.18,0,0,0,.5-.15.15.15,0,0,0-.07.11c0,.2,0,.51-.22.53s-.27.34-.27.34-.48.25-.77,0-.33-.16-.24.14.22.37-.06.4a4.56,4.56,0,0,0-.56.1,3.4,3.4,0,0,0-.81,0c-.2.06-.18.5-.18.65s.27-.27.73.08a3.84,3.84,0,0,1,.84.75,2.2,2.2,0,0,1,.15.71c0,.32.18,1.15-.07,1.18a1,1,0,0,0-.28.08,2.93,2.93,0,0,0-.35.18l-2.92-.06s-1.23.37-.77,1c0,0,0,.07,0,.2a6.66,6.66,0,0,1,.08.84,1.61,1.61,0,0,1-.44,1.1c-.11.21-.26.64-.06.62s.29,1,.29,1-.08.13.41.08.36.06.44,0l0,0a.41.41,0,0,1,.7.18c.14.44.19.52.43.45s.06-.46.47-.5.48-.17.93-.21l.73-.07s.26-.52.47-.5.21-.76.5-.79-.24-.76.19-1.17.49-.82.82-.85a1.75,1.75,0,0,0,.64-.22l.2-.87s-.15-.56.38-.61,1.08.31,1.45.19a1.17,1.17,0,0,0,.63-.58.42.42,0,0,0,.05-.12c.05-.19,0-.39.59-.31s1,.08,1,.56,0,.33.45.65a4.27,4.27,0,0,0,1.2.71c.38.09.74-.15,1.2.56s1,.87.6,1,.1.36-.56.42-.66.14-1.07.17-.57.25-.44.41a9,9,0,0,0,1.5.58l.25-.76a.91.91,0,0,0,.6-.38c.15-.3.26-.56.51-.58s-.28-.55-.46-.66.17-.63.62-.13.92,0,.1-.46a3,3,0,0,0-1.24-.47c-.13-.07-.19-.35-.19-.35l-.63-.15L42.55,24s-.05-.2-.48-.45a4.8,4.8,0,0,1-.65-.43s-.25-.71.12-.74.29-.19.4-.15a.64.64,0,0,1,.22.18,2.81,2.81,0,0,0,.7.59c.13.07.32.46.66.56s.43.29.6.32a3,3,0,0,0,.5,0l.06,0,.81.54a3.85,3.85,0,0,0,.1.93c.09.12.3.8.55.74h.11c.14,0,.16.12.24.31a4.42,4.42,0,0,1,.17.69l.32.43a2,2,0,0,0,.48.21,6.64,6.64,0,0,0,.67,0l-.07-.41.21-.06-.36-.39.56.21.23-.27L48,26.18l-.37-.55s-.12-.48.11-.21.26.14.45-.12-.22-.15.19-.26.5-.29.65-.18l.05,0a1.44,1.44,0,0,0,.66.27s0,0,0,0h0s0,.11,0,.43a2.33,2.33,0,0,0,.24,1c.1.2.29.56.5.54a.42.42,0,0,1,.48.21c.1.2.29.56.29.56l.8,0s.27.15.38,0,.27-.35.27-.35a.56.56,0,0,1,.72,0c.4.3.36.35.86.27s.25-.56.55-.49a3.84,3.84,0,0,0,.93,0c.12,0,.18,0,.22.06a.52.52,0,0,1,.05.22c0,.25.13,1.16.11,1.37a.88.88,0,0,1-.17.56l0,0c-.2.18-.44.28-.42.62s.08.54.11.83a10.63,10.63,0,0,0,.25,1.57,2.92,2.92,0,0,0,.36.92c.43.61.23.24.93,1s.47,1.2.92,1.6.77.12,1.1,1.12c0,0-.07,1.33.51,1.72s.78.21,1.18,1,.83.85,1.15,1.17a1,1,0,0,1,.25.32,1.49,1.49,0,0,1,.07.48,6,6,0,0,0,.1,1.25c.12.55.14.77.37,1s.2.46.82.2.09-.48.8-.53A5.3,5.3,0,0,0,66,43.52s0-.6.54-.64.56-.34,1-.58.69-.26.71-.56.2-.66.32-.67h0L69,41a4.79,4.79,0,0,0,.82-.09c.21-.06-.46-.61.07-.65s.71,0,.72-.34.53-.59.53-.59l0-.47c0-.13-.3-.62.07-.64s.17,0,.62-.46a.93.93,0,0,0,.23-1.16,1.17,1.17,0,0,0-.32-.32c-.18-.16-.42-.53-.54-.52a1.14,1.14,0,0,1-.71-.09,2.13,2.13,0,0,1-.67-.55,1.08,1.08,0,0,1-.09-.22,5.34,5.34,0,0,1-.16-.74,7.76,7.76,0,0,1-1.09,1.37c-.32.19-1.16.11-1.36.25a.15.15,0,0,1-.13,0,3.27,3.27,0,0,1-1.17-1.11c-.33-.53,0-.51-.46-.94a6.78,6.78,0,0,1-1-1.09.89.89,0,0,1-.17-.36c0-.29.63-1.38,1-.77a3.15,3.15,0,0,0,1.68,1.59,1.8,1.8,0,0,0,1.07.74c.63.09,1.31-.7,1.58-.47s.3,1,1.09,1.08,1.44.34,1.85.32a4,4,0,0,0,.45-.06,9,9,0,0,1,1.46-.13c1.18,0,1.23-.44,1.51,0s.2.83.93.79a.53.53,0,0,1,.25,0c.39.17.24.81,1.46.46,0,0,0,.46-.8.55l.81.93a.69.69,0,0,0,.89,0c.49-.36.38-1.58.61-.75s.38,1.92.55,2.54a8.37,8.37,0,0,0,.67,1.69,5.16,5.16,0,0,1,.9,1.64c.09.63.88,1.43,1,1.93s.58,2.22,1.2,2a.74.74,0,0,0,.58-.71s.14-.26.24-.44.45-.33.41-.74-.11-.37-.14-.79.2-.39.17-.81-.26-.7-.29-1-.33-1,.14-1.06a.91.91,0,0,0,.83-.8c0-.33.3-.52.44-.77a1.4,1.4,0,0,1,.49-.61c.18-.09.27-.43.27-.43s0-.42.23-.38a.47.47,0,0,0,.55-.36c0-.29-.09-.87.22-.88s.36-.26.71-.32l.28-.05a4.1,4.1,0,0,1,.43-.1c.11,0,.71-.11.71-.11s.34.48.42.64l.08.11a3.63,3.63,0,0,0,.32.25c.19.16.63.27.74.67s.29.07.43.73.51.47.38,1,.09,1.39.76,1,.54-1,.77-.73a4,4,0,0,1,.47.93l.17.77a6.43,6.43,0,0,0,.43,1,2,2,0,0,1,.19.94c0,.37.18,1.39.2,1.6s-.26.18-.06.54.58.3.66.5.15.61.4.8.22.56.24.93a1.9,1.9,0,0,0,.44.84.86.86,0,0,1,.07.18c0-.36,0-.72-.06-1.08s-.05-.63-.08-.94a.61.61,0,0,1-.37-.27,5.33,5.33,0,0,0-.21-.89,2.49,2.49,0,0,0-.5-.76,1.26,1.26,0,0,1-.22-1,5,5,0,0,0,.15-.92,2.89,2.89,0,0,0,0-.44c0-.33.4-.51.4-.51l.11.53.07,0A50.17,50.17,0,0,0,67.8,5C67.62,5,67.5,5,67.49,5.08ZM47.24,17.95h0v0Zm1.83-3.23v0l0,0ZM67.79,39.49l-.06,0h0Zm6.57-13.6h0l-.25,0Z"/><path class="cls-11" d="M14.92,16.51l.44-.4c.19-.25.53-.82.53-.82s.31-.34.26-.55,0,.14.52-.29.67-.5.68-.77-.1-.41,0-.43.31-.34.75-.4.21.26,1.14-.21a9.48,9.48,0,0,0,1.38-.79c.45-.3.09-.38.68-.56s.54-.12,1.16-.33.88-.42,1.13-.45,1.22-.49,2.08-.77.69-.21.54-.2-1.28-.06-1.62,0,.32-.37.32-.37.46-.26.48-.08.14.35.65.28.86-.18.57-.43-.25-.26-.45-.41-.26-.12-.57-.22S25,8,25.12,8s.48-.13.94-.19l.82-.09c.23,0,.54.09.57-.06s-.15-.16-.29-.19a1.56,1.56,0,0,0,.72-.16c.34-.22.66-.4.26-.36s.35-.29.35-.29.31-.39-.28-.32-1-.19-.34-.26,1.17-.23,1-.26l-.43-.1A49,49,0,0,0,14,16.21a2.93,2.93,0,0,0,.19.26C14.3,16.62,14.46,16.59,14.92,16.51Z"/><polygon class="cls-12" points="125.04 21.2 125.04 30.29 94.38 30.29 88.92 21.2 125.04 21.2"/><polygon class="cls-12" points="105.73 43.84 125.04 43.84 125.04 52.85 105.73 52.85 99.31 52.85 99.31 43.84 105.73 43.84"/><polyline class="cls-12" points="96.35 66.33 125.04 66.33 125.04 75.42 92.24 75.42"/><path class="cls-12" d="M143,66.33l-4.61,9.08h-10L155.46,21.2l18.09,36.19H163.39l-7.93-15.92-8,15.92Zm39.57,9.08h-10.1l-4.47-9h10Z"/><path class="cls-12" d="M193.12,56l11.11,19.45H193.86L178.14,48.24l8.06.07a9.14,9.14,0,0,0,9-9.08,8.41,8.41,0,0,0-2.71-6.3,8.59,8.59,0,0,0-6.3-2.64H168.11l-1-1-4.68-8.06H186.2a17.39,17.39,0,0,1,12.74,5.29,17.51,17.51,0,0,1,5.29,12.74A17.11,17.11,0,0,1,201,49.46,17.47,17.47,0,0,1,193.12,56Z"/><path class="cls-12" d="M243.95,21.2v9.08h-18V75.42h-9.08V21.2Z"/><path class="cls-12" d="M278.15,21.2V75.42h-9V52.85H242V75.42h-9V52.85l9-9.08h27.11V21.2Z"/><polygon class="cls-12" points="213.98 30.28 206.06 30.28 198.57 21.2 213.98 21.2 213.98 30.28"/><polygon class="cls-12" points="370.68 21.2 370.68 22.69 370.68 54.07 361.67 63.15 361.67 22.69 361.67 21.2 370.68 21.2"/><polygon class="cls-12" points="397.79 66.33 397.79 75.42 361.67 75.42 370.68 66.33 397.79 66.33"/><polygon class="cls-12" points="355.54 33.81 328.36 61.12 310.2 43.03 310.2 75.42 301.25 75.42 301.25 21.2 328.36 48.31 355.54 21.2 355.54 33.81"/><polygon class="cls-12" points="355.54 75.42 346.46 75.42 346.46 55.03 355.54 45.95 355.54 75.42"/></svg>