<svg id="Layer_1" data-name="Layer 1" xmlns="http://www.w3.org/2000/svg" xmlns:xlink="http://www.w3.org/1999/xlink" viewBox="0 0 171.61 111.89"><defs><style>.cls-1{fill:url(#radial-gradient);}.cls-2{fill:url(#radial-gradient-2);}.cls-3{fill:url(#radial-gradient-3);}.cls-4{fill:url(#radial-gradient-4);}.cls-5{fill:url(#radial-gradient-5);}.cls-6{fill:url(#radial-gradient-6);}.cls-7{fill:url(#radial-gradient-7);}.cls-8{fill:url(#radial-gradient-8);}.cls-9{fill:url(#radial-gradient-9);}.cls-10{fill:url(#radial-gradient-10);}.cls-11{fill:url(#radial-gradient-11);}.cls-12{fill:#f26522;}.cls-13{fill:none;}</style><radialGradient id="radial-gradient" cx="115.79" cy="24.33" r="80.13" gradientTransform="matrix(0.79, -0.06, 0.06, 0.81, -25.19, 15.95)" gradientUnits="userSpaceOnUse"><stop offset="0" stop-color="#f26522" stop-opacity="0.5"/><stop offset="1" stop-color="#f26522"/></radialGradient><radialGradient id="radial-gradient-2" cx="115.9" cy="24.34" r="80.03" xlink:href="#radial-gradient"/><radialGradient id="radial-gradient-3" cx="115.9" cy="24.34" r="80.04" xlink:href="#radial-gradient"/><radialGradient id="radial-gradient-4" cx="115.9" cy="24.33" r="80.03" xlink:href="#radial-gradient"/><radialGradient id="radial-gradient-5" cx="115.9" cy="24.33" r="80.03" xlink:href="#radial-gradient"/><radialGradient id="radial-gradient-6" cx="117.1" cy="25.53" r="80.04" xlink:href="#radial-gradient"/><radialGradient id="radial-gradient-7" cx="115.91" cy="24.34" r="80.05" xlink:href="#radial-gradient"/><radialGradient id="radial-gradient-8" cx="115.9" cy="24.35" r="80.03" xlink:href="#radial-gradient"/><radialGradient id="radial-gradient-9" cx="108.02" cy="36.02" r="73.95" gradientTransform="matrix(0.83, -0.06, 0.06, 0.88, -23.49, 5.29)" xlink:href="#radial-gradient"/><radialGradient id="radial-gradient-10" cx="108.15" cy="35.9" r="75.88" gradientTransform="matrix(0.83, -0.06, 0.06, 0.88, -23.49, 5.29)" xlink:href="#radial-gradient"/><radialGradient id="radial-gradient-11" cx="116.86" cy="26.25" r="80.03" xlink:href="#radial-gradient"/></defs><title>FitLogo</title><path class="cls-1" d="M129.94,54.87s-.58.25-.54.68a3.86,3.86,0,0,1,0,.6,6.75,6.75,0,0,1-.2,1.23,1.69,1.69,0,0,0,.29,1.31,3.32,3.32,0,0,1,.68,1,7.13,7.13,0,0,1,.28,1.2.81.81,0,0,0,.5.36q-.26-2.87-.75-5.66l-.1,0C130,55.3,130,55.16,129.94,54.87Z"/><path class="cls-2" d="M91.21,83c-.78-.81-.64-.36-.64-.36a9.65,9.65,0,0,0-.09,1.22c0,.34-.15.36-.45.85s-.52.68-.77,1.16-1.1.43-1.31.8-1,.71-1.23,1.14-.13.53-.08,1.33.22.85.61,1.51-.26.42-.6,1.2-.47.61-.71,1.32.22.73.46.94,0,.63,0,1.14,0,.4.74,1,1.18-.09,1.57-.13.86-.58.86-.58q.92-3.45,1.82-6.9l0-.17c-.15-.68-.24-1.08.32-1.12s.14-.47.14-.47-.24-.15-.33-.78.57.19.73.06.06-.81-.11-1.72S92,83.85,91.21,83Z"/><path class="cls-3" d="M39.64,24.7c.48.1.48-.09.95-.34a3.61,3.61,0,0,1,1.11-.44c.68-.19.2-1.15.36-1.31,0,0,.32.15-.08-.14s-.65-.34.31-.45,0-.41-.21-.54-.36,0-1,.07-.39.72-.39.72a.67.67,0,0,1-.68,0c-.44-.21-.56,0-.62.63s.13.36.49.32,0,.27-.35.38a.83.83,0,0,0-.5.76C39,24.61,39.15,24.6,39.64,24.7Z"/><path class="cls-4" d="M54.08,4.29c.47,0,.7-.42,1.13-.46s0,.37,0,.37c-1.21.3-1.26.24-.41.63s.71-.06,1.27.09.28,0,.73-.63.26-.45.92-.58.53.36.81.43a4.8,4.8,0,0,0,1.27.1c.63,0,.78-.26.51-.24A1.8,1.8,0,0,1,59,3.71a5.36,5.36,0,0,0-2-.43,2.82,2.82,0,0,1,.63,0,9.34,9.34,0,0,0,1.63,0A4.35,4.35,0,0,0,60.71,3c.74-.26.37-.49.37-.49l-1.81.14-1.85.15c-.75.06-1,.24-2.08.34l-1.81.16C53,3.3,53,3.6,53,4S53.61,4.33,54.08,4.29Z"/><path class="cls-5" d="M33.43,14.41c.54-.07-.08.22-.19.24a7.51,7.51,0,0,0-.88.5l.92.1-.5.46s.77-.13.92,0a1.91,1.91,0,0,0,1,.2c.35,0,.74-.09.77-.23a4,4,0,0,1,1.6-.65,2.91,2.91,0,0,0,1.28-.89c-.08-.53-1.09-.77-1.6-.53s-.47.09-.89.14A1.76,1.76,0,0,0,35,14a2.22,2.22,0,0,1-.93.29c-.31,0-.11-.24-.38-.42s-1.62.55-1.46.74S32.89,14.47,33.43,14.41Z"/><path class="cls-6" d="M13,105.87a.61.61,0,0,1,.18.67c-.12.48.14.08.34-.67s.1-1,.53-1.43.49-.56.15-1.16-.91-1.15-.57-1.6.86-1.3,1.11-1.58,1.09-1.23,1.55-1.16a3.62,3.62,0,0,0,1.52,0c0-.13-.35-.6.11-.61s.47-.3.47-.3c0-.44,0-.67.07-1.11a3.13,3.13,0,0,0,.29-1c0-.33,0-.66-.07-1.11s.25-.38.23-1-.21-3.1-.3-4,.32-.39.45-.19,0-.12.18-.76a8.52,8.52,0,0,0,.23-1.1,3.69,3.69,0,0,1,.75-.91,2.34,2.34,0,0,0,.67-2,6.6,6.6,0,0,0-.42-2.08c-.23-.58.28-1.07-.26-1s-.4.4-1.12-.1a9.36,9.36,0,0,1-1.22-1.06c-.19-.15-.81-.87-1.13-.89a4.85,4.85,0,0,0-.81,0c-.35,0-.65.21-.91.06s-.75-.7-1.38.13l-.22.31a9.16,9.16,0,0,0,0-.92c0-.41-.07-.41-.67-.7a14.16,14.16,0,0,0-1.28-.62.65.65,0,0,0-.75.34c-.05.09-.12.2-.19.3a.91.91,0,0,0,.13-.67c-.13-.44-.4-.39-.63-.37a7.69,7.69,0,0,1-.78,0s-.36-.39,0-.62.45-.32.38-.73.09-.09-.4-.46-.3-.51-.43-1-.42-1.16-.42-1.16l-.25-.18L8,73.31s-1.19-1-1.49-.94H6.42a5.13,5.13,0,0,0-1.08-.18l-.77.07-.06-.07c-.16-.19-.62-.72-.82-.66s-.54-1.45-1-1.36h0a1.67,1.67,0,0,1-.91-.2s.53-.5.33-.72-.22,0-.64-.26S.32,68.5.85,68.45s.4-.16.4-.16L0,68.2Q0,70.59.17,73a68,68,0,0,0,12.56,34.87c0-.3,0-.59,0-.79A4.69,4.69,0,0,1,13,105.87Z"/><path class="cls-7" d="M77.76,6.68a3.3,3.3,0,0,0,1,.39c.12,0,1.38-.28,1.38-.28-.57-.07-2.44-.28-1.51-1.38s4.74-2.11,4.74-2.11c-.43-.31-.5-.21-.73-.2s-.65.23-.93.25-.22.18-.46.19l-1.73.13c-.43,0-.31.39-.55.4s-.69.24-1,.26,0,.41-.47.47-.14.24-.26.25-.14.21-.18.55,0,.4-.27.56-.62.21-.59.48S77.38,6.46,77.76,6.68Z"/><path class="cls-8" d="M115.09,59.44c0,.13-.32,3.94.8,3.61a1.19,1.19,0,0,0,.67-2C116,60.36,115.15,58.76,115.09,59.44Z"/><path class="cls-9" d="M90.88,60.14s-.48.38-.74.63-.71.22-1.5.27-.6.22-1.23.25-.36.43-.92.53-1,.18-1.29.2-.37-.44-.6-.42-.31-.18-.35-.34a.55.55,0,0,1,0-.1l-.06-.81a1.08,1.08,0,0,0-.57-.77c-.3-.21-.32-.44-.75-.88a3.38,3.38,0,0,0-1.61-1c-.57-.08-.08-.34-.9-1.33s-.31-.39-.54-1.12a.8.8,0,0,0-.28-.48,2.88,2.88,0,0,1-.76-.49c-.61-.59-.48-.37-.61-.59A3.69,3.69,0,0,1,78,52.56c0-.17-.73-1.45-1-2.06s-.64-.25-.48-.43,0-.21-.13-.42a3.18,3.18,0,0,1-.36-.86,4.84,4.84,0,0,0-1.24-2.14c-.55-.59-.38-.49-.41-.94s-1-1.13-1-1.41-.34-.77-.22-.61.51.81.71,1.09.07.22.85.79.21-.18.22-.81a3.78,3.78,0,0,0-.13-.81,4.14,4.14,0,0,0-.62-1.57c-.17,0-.29,0-.74,0s-.35-.09-.8-.06-.36-.31-1.1-.26-.75.56-1.3.83-1.57-.57-1.86-.6a10.53,10.53,0,0,0-1.35.1c-.16,0-.3-.12-.49-.19a.64.64,0,0,0-.26,0,3.61,3.61,0,0,1-1.1-.31,2.91,2.91,0,0,1-.66-.51c-.36-.37-.85,0-1.18,0s-.47.54-.74.79.06.9.09,1.29-.22.13-.48.38-1,.13-1.31-.12-.13-.22-.43-.48-1.07,0-1.3,0-.34,0-.43-.53a.71.71,0,0,0-.49-.64s-.9,0-1.29,0-.73-.05-1,0-.28-.15-.42-.28a.52.52,0,0,0-.39-.21.48.48,0,0,1-.46-.3.84.84,0,0,1-.2-.6c0-.34.3-.53.45-.82s-.15-.71-.27-.87.35-.75.35-.75-.48.37-.5.09-.69-.33-.69-.33l-.71.23s-.55.1-.72.12-.71.12-.71.12l-.94.08s-.49.15-1.53.41a4.53,4.53,0,0,1-1.26.23,3.34,3.34,0,0,0-.55.16,3.19,3.19,0,0,0-.87.36c-.21.19-.26.36-.47.38a1.94,1.94,0,0,0-.86.36c-.43.26,0,0-.15.24s-.17.25-.3.27h-.18a1.8,1.8,0,0,1-.45-.12,1.81,1.81,0,0,0-.55.05l-.71.07a1.25,1.25,0,0,1-.56-.17.89.89,0,0,0-.62-.38c-.38,0-.32.25-.32.25s0,.28-.08.51a3.59,3.59,0,0,0-.24.8c0,.28-.42.32-.52.55s-.37.26-.68.45-.59.17-.79.58a5.05,5.05,0,0,0-.5,1c0,.28-.25.41-.24.75a3.07,3.07,0,0,0,.14.71c0,.18,0,.27,0,.45a1.41,1.41,0,0,0-.39.82c0,.39-.8.41-.8.41a3.59,3.59,0,0,0-.73.63,1.76,1.76,0,0,1-.74.47h0c-.14.09.14.72-.69,1.3a2.45,2.45,0,0,0-.89,1.72,3.12,3.12,0,0,1-.35.65,2.63,2.63,0,0,0-.28.87,8.23,8.23,0,0,0-.69,1.2c-.19.47-.15.24-.18.64s.13.38.25.65.06.22.34.31,0,.74.07,1.24.07.28.1.79-.07.69,0,1.31c0,.2,0,.33,0,.43a.55.55,0,0,1-.09.38c-.1.18-.42,1-.42,1a2.49,2.49,0,0,0-.07.63c0,.28,0,.34,0,.68s0,0-.08.52,0,0,0,.4.42.65.42.65l0,0,.21.28c.23.32.71.11.71.11-.1.35.21.54.38.61l.09,0a2.23,2.23,0,0,0,.47.59c.22.15.18.27.52.53a1.75,1.75,0,0,1,.46.66,1.62,1.62,0,0,1,.09.22s0,.52,0,.69.41.43.59.59a2.62,2.62,0,0,0,.68.41,1.07,1.07,0,0,1,.22.15c.19.16.25.33.42.49s1.27,1,1.27,1a10,10,0,0,1,1.1.73c.47.37.62.13.62.13l.14,0,.46-.12a2.92,2.92,0,0,1,.69-.4c.16,0,.37-.32,1-.36l1.27-.1c.5,0,.24.16.58.3a.74.74,0,0,0,.52,0l.14-.06.54-.27A2.74,2.74,0,0,0,47,70a1.65,1.65,0,0,1,.76-.41c.28,0,.31-.31.65-.34a.34.34,0,0,0,.31-.37l.19,0,.81-.2h0a10.47,10.47,0,0,1,1.13-.08c.45,0,.41.2,1.06.62s.15.46.13,1,.2.45.6.42.77-.29,1.11-.32a4.52,4.52,0,0,0,1.1-.43v0l.42.53a3.52,3.52,0,0,1,.74.88.93.93,0,0,1,.1,1,1.62,1.62,0,0,0-.12.31,7.71,7.71,0,0,0-.17.93,2.62,2.62,0,0,0,0,.42c0,.35-.34.67-.4,1.54s1,2,2,2.82l.52.44a2.11,2.11,0,0,1,.55.65,3.81,3.81,0,0,1,.35.93,9.28,9.28,0,0,0,.41,1.54c.41.9,1,1,.64,1s0,1.4.35,1.6.57,1.59,0,2.67a14.46,14.46,0,0,0-1.07,4.37c0,.21,0,.4,0,.56,0,1.15,2.53,4.77,2.53,4.77a23.39,23.39,0,0,1,.83,3.36c.07.85,1,1.8,1.4,2.28a1.18,1.18,0,0,1,.16.22,4.92,4.92,0,0,0,1.07,2.18c.87,1-.08,1.81.8,3s1.41.69,2.26.07,1.45-.1,1.9-.13,1.41-.66,2.09-.71.38-1,1.69-1.58,1.52-.89,1.67-2,.91-1.54,1.66-2.16.64-.78.28-1.49l-.18-.34c-.52-1,1.7-1.72,1.7-1.72.4,0,.64-.56.68-1.71a2.81,2.81,0,0,0-.85-2.51c-.73-.64.17-.88.55-1.14a5.16,5.16,0,0,0,1-.94c.31-.37.4-.78.61-1s1.16-.61,1.42-.86A5.43,5.43,0,0,0,83.6,88.4c.36-.61.41-.67.2-1.29s0-.63-.13-1.9a5,5,0,0,1,0-1.51l-.3-.64a13.21,13.21,0,0,1-.59-1.5c-.23-.8-.08-1.16-.33-1.49a2.81,2.81,0,0,1-.5-1.48c-.11-.79.46-.35.45-.92,0,0,0,0,0,0,0-.64,0-.87.32-1.13s-.18-1,.26-1.19.74-.77.85-1l0-.07a8.93,8.93,0,0,0,.68-.81c.1-.18.77-1.16.92-1.52s.95-1,1.1-1.19.72-.29.81-.53a7.12,7.12,0,0,1,1.08-1.53,4.59,4.59,0,0,0,1-1.58,14.89,14.89,0,0,1,.84-2.38c.58-1.26.5-3.75.86-4.29S90.88,60.14,90.88,60.14ZM77.33,72.77v0h0l0,.06c0,.21,0,.32,0,.53h0C77.34,73.1,77.34,73,77.33,72.77Zm-.59-.13h0a.52.52,0,0,0,0,.07A.31.31,0,0,1,76.75,72.64Zm-1.25.93h0s0-.19,0-.19Zm-.26.45h0v0l.27.4v0Zm1.88,1.28-.24.18s-.54,0-.59,0l-.42-.1-.26.43a6.48,6.48,0,0,1-.24-.8h0a7.33,7.33,0,0,0,.24.77l.26-.43.42.1s.59,0,.59,0l.24-.18Zm.12-1.09c0,.11,0,.16,0,.26l-.17,0c0,.14,0,.21,0,.35l-.23.11c0,.09,0,.14,0,.24h0c0-.11,0-.17,0-.28l.24-.1c0-.14,0-.22,0-.36l.17,0c0-.11,0-.16,0-.27h.3l0,0Z"/><path class="cls-10" d="M90.55,6.81c0,.13,1.66.62,1.66.62l-1.2,0c-.68,0-.83.08-.87-.24a1.13,1.13,0,0,0-.64-.84c-.33-.12-.1.46-.1.46s-.78.49-.07.69.94.32.88.65-.07.69.56.67,2.34-.23,2.52.37.91.43.91.43l-.72.17S92.78,9,92.26,9a9.32,9.32,0,0,0-1.14.14s.55.21.61.58-.21.8-.37.81-.07.28-.07.28l-.59,0a2.49,2.49,0,0,1-1.75-.35s1.75,0,1.79-.54-.13-.6-.41-.72-.59,0-.69-.39.1-.42-.31-.72a3.32,3.32,0,0,0-.92-.56c-.33-.12-.2-.76-.2-.76a3.9,3.9,0,0,0-1.55-.57c-.58,0-1,.09-.78.54s.26.81,0,.82-.59.4-.21.47.46.25.46.25-.18.24.36.35.64,0,.77.24.63.34.63.34.26.36,0,.37-.3.16-.77-.19-.59-.07-1.28-.4a2.59,2.59,0,0,0-1.47-.3c-.37,0-2,.19-2,.19s-1-.73-1.27-.35S82.21,9,82.21,9s.88.19.55.57-.44-.07-.44-.07a.84.84,0,0,0-.56-.2c-.32,0-.65.45-.65.45l-1.19-.07-.29.29-.9.1a.78.78,0,0,0,.33-.48c0-.28-.6-.1-.76,0s-.57.26-.57.26a3.4,3.4,0,0,0-.84.23,4.64,4.64,0,0,0-.8.65c-.07.17-.11.26-.18.43a3.57,3.57,0,0,1-1.36,0c-.28-.17-.64-.47.12-.52s-.16-.55-.8-.5-.8,0-.65.6.82.74.85,1-.26.11-.26.11a1,1,0,0,0-.67-.23,3.18,3.18,0,0,0-1.51.75c-.14.24.65.57.38.68a2.7,2.7,0,0,1-1.64-.18c-.45-.25-1.18.22-.29.49s.6.72.2.46a2,2,0,0,0-1-.41c-.22,0-.66,0-.66,0s.15-.2-.2-.51a.45.45,0,0,1-.15-.6,3.14,3.14,0,0,1-1.05-.3c-.45-.25.15-.15.36-.17a16.39,16.39,0,0,0,2.14.27c.92,0,2.2-.29,2.16-.71a1.06,1.06,0,0,0-1.15-.81,2.14,2.14,0,0,1-1.49-.32,3.29,3.29,0,0,0-2-.32,1.7,1.7,0,0,1-1.14-.15c-.22-.12-1.22.23-1.22.23s-.45-.38-.24-.4l.21,0a1.39,1.39,0,0,1-.49-.15,3.09,3.09,0,0,0-.82-.17l-.09.24L63.4,9l-.52.31-.45.45c0-.19,0-.27,0-.46l-.56.46.18-.61a1.35,1.35,0,0,0-.75.1c-.47.17-.67.42-.67.56s-.32,0-.48,0a6.08,6.08,0,0,0-.63.14s-.05.1-.48.13-.7-.17-.69.06-.52.36-.67.42-.24.57-.24.57a3.12,3.12,0,0,1-1,.13c-.17-.08-.37.17-.41.5s-.36.4-.52.46a4,4,0,0,0-.62.52l-.19.53s-.14.53-.35.59-.62.62-.89.65-.41.61-.62.63l-.48,0-1,.09s-.09.63-.24.74a5.06,5.06,0,0,1-.63.3c-.37.18-.64.2-.63.35a1.09,1.09,0,0,0,.23.41l1,0-1.28.22.14.81.85-.42-.67.89.45.64s0,.39,1,.15A3.3,3.3,0,0,0,53,18.65c.21-.07.56-.92.63-.54s.07.38.45.35h.16c.54,0-.69.35-.09.54s.44.2.75.86a1.31,1.31,0,0,1,.16,1,.53.53,0,0,0,.57.44c.33,0,.49-.14.53-.34s.48-.24.86-.27.76-.17.67-.79a3.91,3.91,0,0,1,0-1.23s1.45-.56,1.25-1.08-1.1-.25-1.32-1.24.86-1.17,1.49-1.61a12.19,12.19,0,0,0,1-.8s-.6-.09-.29-.31.35-.45.63-.47.8-.21,1-.22h.26c.38,0,1,0,.84.21s-.08.43-.24.44a11.67,11.67,0,0,0-1.41,1s-.85.35-.65.91.39,1.22.39,1.22,0,.19.34.21.56.29.83.27l1-.08c.16,0,.7-.15.87-.17a2.06,2.06,0,0,0,.55,0,1.59,1.59,0,0,0,.41-.37l.21,0,.39,0,.6.1-.63.38-.32.22-2,.2s-1.43.69-.53,1.06a2,2,0,0,1,.4.22c.48.35.4.75,0,.82s-.56-.2-.56-.2a1.11,1.11,0,0,0-1.23-.39c-.7.3-.64.34-.23.8s0,.34.2.53-.2.41.09.58c.13.08-.06.18-.26.28s-.53.25-.25.31c.5.11-1.14.3-1.14.3L59,21.32s-.81.27-1.24.45-1.29.51-1.29.51l-.2,0-.41-.06s-.56-.35-.72-.18a1.68,1.68,0,0,1-.81.32,1.16,1.16,0,0,1-.72-.18c-.17-.13-.6.1-.51-.4s.15-.41.57-.7.53-.29.36-.48-.65.11-.5-.25.46-.73.18-.71a1.17,1.17,0,0,0-.75.31,4.23,4.23,0,0,1-.42.38s-.65.11-.64.31a3.09,3.09,0,0,0,0,.69,4,4,0,0,0,.63.73s-.14.66-.36.68.08,0-.91.43l-.16.07c-1.18.46-1.26,0-1.61.71s0,.79-.83,1l-.1,0c-.68.22-.44.35-.59.51a2.72,2.72,0,0,1-.59.3c.05-.06,0-.13-.12-.2-.5-.23-.8.28-.5-.23s.47-.36.62-.77.3-.47,0-.55-.71.43-1,.22.12-.14-.06-.61.06-.57-.35-.82-.61-.05-.61-.05.34-.78-.39-.93a1.42,1.42,0,0,0-1,.07s0-.08.71-.45a1.18,1.18,0,0,0,.7-.88,7.32,7.32,0,0,0-1.09-.07c-.32,0-.59.4-.63.29a.65.65,0,0,1,.34-.59,5,5,0,0,0,.55-.43l-1.32,0a4.06,4.06,0,0,1-.62.8c-.35.33-.43.53-.42.78s.65.27.65.27-.51.46-.31.44,1-.18.72-.08a5.29,5.29,0,0,0-.59.32l.48-.05s-.67.56-.51.54.92-.25.92-.25.36-.22.37.19a1.2,1.2,0,0,0,.3.71s.61,0-.11.46-.67.41-.87.43.5.46.26.6-.85.05-.88.21.3.36.54.34.78.39,1.16-.28c0,0-.22.65-.74.67a1.05,1.05,0,0,0-1.09,1,2.52,2.52,0,0,1,1-.31c.68-.07.6-.18,1-.22s.44-.09.89-.13a11.19,11.19,0,0,0,1.21-.2,4.27,4.27,0,0,0,.67-.2.2.2,0,0,0-.09.15c0,.27,0,.69-.3.72s-.36.46-.36.46-.64.33-1,0-.45-.22-.32.19.29.5-.09.54a6.12,6.12,0,0,0-.76.13,4.57,4.57,0,0,0-1.08,0c-.27.08-.25.67-.24.88s.36-.36,1,.11a5.15,5.15,0,0,1,1.13,1,3,3,0,0,1,.2.95c0,.43.24,1.55-.09,1.58a1.28,1.28,0,0,0-.38.11,3.92,3.92,0,0,0-.48.24l-3.91-.09s-1.65.5-1,1.3c0,0,0,.1.05.27a8.94,8.94,0,0,1,.11,1.12A2.16,2.16,0,0,1,39,37.08c-.15.29-.34.86-.08.83s.38,1.34.38,1.34-.1.17.55.11.48.08.59,0l.06-.05a.55.55,0,0,1,.93.24c.19.59.25.7.57.61s.08-.61.62-.67.64-.23,1.25-.29l1-.09s.35-.7.63-.67.28-1,.66-1.06-.33-1,.26-1.56.66-1.1,1.1-1.15a2.34,2.34,0,0,0,.86-.3l.27-1.17s-.2-.75.51-.81,1.46.41,1.94.25a1.57,1.57,0,0,0,.84-.78.56.56,0,0,0,.07-.16c.07-.26,0-.52.79-.41.95.13,1.28.1,1.31.75s0,.44.61.88a5.73,5.73,0,0,0,1.61,1c.51.12,1-.19,1.61.75s1.31,1.16.81,1.31.14.48-.75.56-.89.18-1.44.23-.76.34-.59.55A12.08,12.08,0,0,0,58,38l.33-1a1.21,1.21,0,0,0,.81-.51c.2-.4.35-.75.68-.78s-.38-.74-.61-.89.22-.85.83-.18,1.24.06.14-.62a4,4,0,0,0-1.67-.63c-.17-.09-.25-.47-.25-.47l-.85-.2-.31-.57s-.07-.27-.65-.6a6.44,6.44,0,0,1-.87-.58s-.33-.95.17-1c.35,0,.38-.25.54-.2a.86.86,0,0,1,.29.24,3.77,3.77,0,0,0,.93.79c.17.1.43.62.88.75s.58.39.8.43a4.06,4.06,0,0,0,.67,0l.08.06,1.09.73A5.17,5.17,0,0,0,61.16,34c.12.16.41,1.07.74,1h.15c.19,0,.22.16.33.42a5.93,5.93,0,0,1,.23.93l.43.58a2.65,2.65,0,0,0,.64.28,8.9,8.9,0,0,0,.91,0c0-.22-.05-.33-.09-.55l.28-.08-.49-.52.75.28.31-.36-.9-.87-.5-.74s-.16-.65.15-.29.35.19.61-.16-.29-.2.26-.35.67-.38.88-.24l.07.05a1.94,1.94,0,0,0,.88.37s0,0,0,0h0s-.06.15,0,.57a3.13,3.13,0,0,0,.32,1.3c.13.27.39.75.67.73a.57.57,0,0,1,.64.29c.13.27.39.75.39.75l1.07,0s.36.2.51,0,.36-.47.36-.47a.75.75,0,0,1,1,0c.54.41.49.47,1.15.36s.34-.75.74-.66a5.15,5.15,0,0,0,1.24,0c.16,0,.24,0,.3.08a.7.7,0,0,1,.07.29c0,.33.18,1.55.14,1.83a1.18,1.18,0,0,1-.22.75l-.05.06c-.26.24-.59.38-.56.83s.11.72.14,1.12A14.26,14.26,0,0,0,75,43.84a3.92,3.92,0,0,0,.48,1.23c.57.81.31.32,1.24,1.39s.63,1.61,1.24,2.15,1,.16,1.48,1.5c0,0-.09,1.79.69,2.31s1,.28,1.58,1.33,1.11,1.14,1.54,1.57a1.38,1.38,0,0,1,.33.43,2,2,0,0,1,.09.64,8,8,0,0,0,.13,1.67c.17.74.19,1,.5,1.36s.27.62,1.1.27.12-.65,1.08-.71a7.11,7.11,0,0,0,2.1-.6s0-.81.72-.86.76-.45,1.29-.77.93-.35,1-.75.26-.88.43-.89H92l.62,0a6.43,6.43,0,0,0,1.11-.13c.28-.08-.62-.82.1-.87s1,.06,1-.46.71-.79.71-.79l-.05-.63c0-.17-.4-.83.09-.86s.22,0,.84-.62a1.24,1.24,0,0,0,.31-1.55,1.57,1.57,0,0,0-.42-.43c-.24-.21-.56-.71-.73-.7a1.53,1.53,0,0,1-1-.12,2.85,2.85,0,0,1-.9-.74,1.45,1.45,0,0,1-.12-.3,7.16,7.16,0,0,1-.21-1,10.4,10.4,0,0,1-1.46,1.84c-.43.25-1.55.15-1.82.33a.2.2,0,0,1-.18,0,4.39,4.39,0,0,1-1.57-1.49c-.45-.71.06-.68-.61-1.27a9.1,9.1,0,0,1-1.34-1.47,1.19,1.19,0,0,1-.22-.48c0-.39.85-1.85,1.37-1a4.22,4.22,0,0,0,2.25,2.13,2.42,2.42,0,0,0,1.43,1c.85.12,1.76-.94,2.12-.63s.4,1.33,1.46,1.45,1.93.46,2.48.43a5.34,5.34,0,0,0,.61-.08,12.06,12.06,0,0,1,2-.17c1.59,0,1.64-.59,2,0s.27,1.11,1.24,1.06a.71.71,0,0,1,.33.05c.52.23.33,1.09,2,.62,0,0-.05.62-1.07.73l1.09,1.24a.93.93,0,0,0,1.19,0c.66-.49.51-2.11.82-1s.51,2.57.74,3.41a11.23,11.23,0,0,0,.9,2.27,6.92,6.92,0,0,1,1.21,2.21c.12.85,1.18,1.92,1.39,2.59s.78,3,1.61,2.69a1,1,0,0,0,.78-1s.18-.35.32-.59.6-.44.55-1-.15-.5-.19-1.07.27-.52.22-1.09-.34-.94-.38-1.39-.44-1.39.19-1.42a1.22,1.22,0,0,0,1.11-1.07c0-.45.41-.69.59-1a1.88,1.88,0,0,1,.65-.82c.25-.12.36-.58.36-.58s0-.56.31-.52a.63.63,0,0,0,.73-.48c.06-.39-.11-1.16.3-1.18s.48-.35,1-.42l.37-.07a5.51,5.51,0,0,1,.58-.13c.15,0,1-.14,1-.14s.45.65.57.86a.74.74,0,0,0,.1.15,4.87,4.87,0,0,0,.43.33c.26.21.85.36,1,.91s.4.1.57,1,.68.63.5,1.31.13,1.87,1,1.28.73-1.35,1-1a5.36,5.36,0,0,1,.63,1.24l.23,1a8.63,8.63,0,0,0,.58,1.35,2.69,2.69,0,0,1,.25,1.26c0,.5.25,1.87.27,2.14s-.35.24-.08.72.77.4.89.67.2.82.54,1.07.29.76.33,1.25a2.54,2.54,0,0,0,.59,1.12,1.15,1.15,0,0,1,.1.24c0-.48-.05-1-.09-1.45s-.07-.84-.1-1.26a.81.81,0,0,1-.5-.36,7.15,7.15,0,0,0-.28-1.2,3.35,3.35,0,0,0-.68-1,1.68,1.68,0,0,1-.29-1.31,6.76,6.76,0,0,0,.2-1.23,3.87,3.87,0,0,0,0-.6c0-.44.54-.68.54-.68l.15.71.1,0A67.31,67.31,0,0,0,91,6.66C90.72,6.69,90.56,6.73,90.55,6.81ZM63.37,24.08l0,0,0,0Zm2.46-4.34,0,0,0,0ZM90.95,53l-.08.06h0Zm8.81-18.24h0l-.33,0Z"/><path class="cls-11" d="M20,22.15l.58-.54c.26-.34.71-1.1.71-1.1s.41-.46.34-.74,0,.18.7-.39.9-.67.91-1-.14-.56,0-.58.42-.46,1-.53.29.35,1.53-.28a12.72,12.72,0,0,0,1.85-1.06c.61-.4.12-.51.91-.75s.72-.16,1.55-.44,1.18-.57,1.52-.61,1.64-.66,2.79-1,.92-.28.73-.26-1.72-.08-2.18-.06.42-.5.42-.5.61-.35.65-.11.19.46.88.38,1.15-.24.77-.57-.34-.34-.6-.55-.35-.17-.76-.29-.83-.31-.64-.33.65-.18,1.26-.25l1.11-.13c.31,0,.73.12.77-.09s-.2-.22-.39-.25a2.1,2.1,0,0,0,1-.22c.46-.29.89-.54.35-.48s.47-.39.47-.39.42-.52-.38-.43-1.37-.25-.46-.35,1.57-.31,1.38-.35l-.58-.14A65.7,65.7,0,0,0,18.76,21.75a3.93,3.93,0,0,0,.25.35C19.18,22.3,19.4,22.26,20,22.15Z"/><polygon class="cls-12" points="113.06 69.77 113.06 73.21 102.79 73.21 99.38 69.77 113.06 69.77"/><polygon class="cls-12" points="102.79 78.35 113.06 78.35 113.06 81.76 102.79 81.76 99.38 81.76 99.38 78.35 102.79 78.35"/><polygon class="cls-12" points="102.79 86.87 113.06 86.87 113.06 90.31 99.38 90.31 99.38 90.03 102.79 86.87"/><path class="cls-12" d="M120.4,86.87l-1.75,3.44h-3.8l10.27-20.54L132,83.48h-3.85l-3-6-3,6Zm15,3.44h-3.83l-1.69-3.41h3.8Z"/><path class="cls-12" d="M139.39,82.94l4.21,7.37h-3.93l-6-10.3,3.06,0a3.46,3.46,0,0,0,3.41-3.44,3.19,3.19,0,0,0-1-2.39,3.26,3.26,0,0,0-2.39-1h-6.85l-.38-.39-1.77-3.05h9a6.84,6.84,0,0,1,6.83,6.83,6.48,6.48,0,0,1-1.21,3.88A6.62,6.62,0,0,1,139.39,82.94Z"/><path class="cls-12" d="M158.65,69.77v3.44h-6.83v17.1h-3.44V69.77Z"/><path class="cls-12" d="M171.61,69.77V90.31h-3.41V81.76H157.92v8.55h-3.41V81.76l3.41-3.44h10.27V69.77Z"/><rect class="cls-12" x="144.33" y="69.77" width="3.44" height="3.44"/><polygon class="cls-12" points="127.3 91.35 127.3 91.92 127.3 103.8 123.88 107.24 123.88 91.92 123.88 91.35 127.3 91.35"/><polygon class="cls-12" points="137.56 108.45 137.56 111.89 123.88 111.89 127.3 108.45 137.56 108.45"/><polygon class="cls-12" points="119.94 96.13 109.64 106.47 102.77 99.62 102.77 111.89 99.38 111.89 99.38 91.35 109.64 101.62 119.94 91.35 119.94 96.13"/><polygon class="cls-12" points="119.94 111.89 116.5 111.89 116.5 104.17 119.94 100.73 119.94 111.89"/><line class="cls-13" x1="90.62" y1="108.07" x2="94.42" y2="111.87"/></svg>